#!OML:ASF E:\Steps\Project 1\Capture day 1\Session 2\Subject.ASF
:FULLY-SPECIFIED
:DEGREES
467
root 9.9985 16.1756 1.21336 -139.923 -0.859648 178.975
lowerback -1.02336 -0.439893 -3.64862
upperback 1.34265 -0.538186 -0.774418
thorax 1.9781 -0.33164 1.23407
lowerneck -2.63614 -0.446244 -6.00996
upperneck 9.46346 -1.50796 9.82095
head 3.33817 -0.696837 3.9193
rclavicle -8.15017e-015 -8.74653e-015
rhumerus -18.9093 -10.8694 -86.688
rradius 21.4245
rwrist 10.8126
rhand -12.4273 -56.0489
rfingers 7.12502
rthumb 13.6452 -85.5816
lclavicle -8.15017e-015 -8.74653e-015
lhumerus -13.4979 -1.30065 83.6978
lradius 14.7958
lwrist -8.91195
lhand -27.7578 -13.8121
lfingers 7.12502
lthumb -1.15203 16.1645
rfemur -57.933 6.27238 12.1843
rtibia 39.732
rfoot -23.429 -14.9293
rtoes -26.2536
lfemur -58.6948 -7.18683 -13.0621
ltibia 37.6395
lfoot -10.5935 7.71616
ltoes -35.3682
468
root 9.99892 16.2337 1.16894 -140.23 -0.928602 179.012
lowerback -1.74406 -0.507136 -3.5982
upperback 1.29455 -0.592846 -0.732154
thorax 2.33669 -0.361402 1.24134
lowerneck -2.44328 -0.473223 -5.98569
upperneck 9.11785 -1.51007 9.76813
head 3.20303 -0.703441 3.89669
rclavicle 1.98785e-016 -1.51076e-014
rhumerus -19.3743 -10.675 -86.5707
rradius 21.3489
rwrist 10.666
rhand -12.5156 -55.7208
rfingers 7.12502
rthumb 13.5601 -85.2592
lclavicle 1.98785e-016 -1.51076e-014
lhumerus -13.8657 -0.860659 83.6717
lradius 14.6256
lwrist -9.29661
lhand -27.8708 -14.2331
lfingers 7.12502
lthumb -1.26114 15.7429
rfemur -56.5568 6.24117 12.3583
rtibia 38.069
rfoot -23.0073 -14.9363
rtoes -26.2483
lfemur -57.237 -7.25469 -13.0147
ltibia 35.8255
lfoot -10.4053 7.73266
ltoes -33.4712
469
root 9.99675 16.2855 1.12609 -140.399 -1.01022 179.004
lowerback -2.57775 -0.577274 -3.51709
upperback 1.13847 -0.650548 -0.741108
thorax 2.64695 -0.389746 1.17722
lowerneck -2.17158 -0.503745 -5.88237
upperneck 8.75515 -1.52462 9.69194
head 3.05025 -0.717877 3.85345
rclavicle 4.77083e-015 -1.86858e-014
rhumerus -20.0053 -11.0078 -86.4054
rradius 21.3963
rwrist 10.8835
rhand -12.1371 -55.9699
rfingers 7.12502
rthumb 13.9248 -85.4836
lclavicle 4.77083e-015 -1.86858e-014
lhumerus -14.3562 -0.481926 83.58
lradius 14.6021
lwrist -9.68046
lhand -27.6261 -13.9056
lfingers 7.12502
lthumb -1.02477 16.0716
rfemur -55.3672 6.0616 12.544
rtibia 36.5016
rfoot -22.5714 -14.9827
rtoes -27.0489
lfemur -55.9976 -7.34813 -13.02
ltibia 34.1145
lfoot -9.98606 7.8119
ltoes -33.8121
470
root 9.99357 16.3344 1.08435 -140.599 -1.03934 179.002
lowerback -3.29186 -0.656411 -3.49095
upperback 0.920459 -0.728364 -0.719482
thorax 2.82786 -0.427187 1.17468
lowerneck -1.78424 -0.513488 -5.82698
upperneck 8.35446 -1.51158 9.61403
head 2.8651 -0.724093 3.81907
rclavicle 9.93923e-016 2.38542e-015
rhumerus -20.686 -11.3083 -86.1665
rradius 21.3905
rwrist 11.091
rhand -11.8737 -56.2698
rfingers 7.12502
rthumb 14.1787 -85.7659
lclavicle 9.93923e-016 2.38542e-015
lhumerus -14.9664 -0.168242 83.5263
lradius 14.7001
lwrist -9.83943
lhand -27.3041 -13.4979
lfingers 7.12502
lthumb -0.713809 16.4806
rfemur -54.1386 5.94887 12.6805
rtibia 34.9751
rfoot -22.2889 -14.833
rtoes -27.6505
lfemur -54.6921 -7.43746 -13.0657
ltibia 32.3448
lfoot -9.38742 7.92888
ltoes -35.2001
471
root 9.99213 16.3831 1.03993 -140.871 -1.04166 179.066
lowerback -4.00983 -0.750991 -3.51309
upperback 0.816271 -0.824432 -0.637905
thorax 3.13081 -0.478535 1.25727
lowerneck -1.51693 -0.51574 -5.76423
upperneck 7.97584 -1.48224 9.52514
head 2.70553 -0.717869 3.78082
rclavicle 6.75868e-015 1.11319e-014
rhumerus -21.1284 -11.0408 -86.0147
rradius 21.2137
rwrist 11.0008
rhand -12.1283 -56.2729
rfingers 7.12502
rthumb 13.9333 -85.7861
lclavicle 6.75868e-015 1.11319e-014
lhumerus -15.3228 0.297783 83.5003
lradius 14.5801
lwrist -10.0009
lhand -27.1077 -13.2715
lfingers 7.12502
lthumb -0.524118 16.7076
rfemur -52.7563 6.0071 12.8231
rtibia 33.2936
rfoot -21.9039 -14.7298
rtoes -27.5957
lfemur -53.2897 -7.49993 -13.0193
ltibia 30.6145
lfoot -8.98603 8.03096
ltoes -35.1613
472
root 9.99321 16.426 0.993784 -141.068 -1.06996 179.185
lowerback -4.95222 -0.808815 -3.45456
upperback 0.791476 -0.864925 -0.571673
thorax 3.63846 -0.504674 1.2778
lowerneck -1.44473 -0.535205 -5.677
upperneck 7.63433 -1.46829 9.43634
head 2.59084 -0.711472 3.73802
rclavicle 5.96354e-016 -1.43125e-014
rhumerus -21.5231 -10.9552 -85.8495
rradius 20.8908
rwrist 11.3596
rhand -12.7843 -55.8317
rfingers 7.12502
rthumb 13.3011 -85.3872
lclavicle 5.96354e-016 -1.43125e-014
lhumerus -15.4497 0.948 83.4473
lradius 14.3007
lwrist -10.3991
lhand -27.0957 -13.3671
lfingers 7.12502
lthumb -0.512475 16.612
rfemur -51.4218 6.13279 12.9866
rtibia 31.3911
rfoot -21.2113 -14.8189
rtoes -27.8222
lfemur -52.0396 -7.5089 -12.8855
ltibia 28.9965
lfoot -8.64542 8.15754
ltoes -34.1714
473
root 9.99329 16.4617 0.948402 -141.216 -1.01852 179.236
lowerback -5.89988 -0.822022 -3.43048
upperback 0.675946 -0.848259 -0.566518
thorax 4.05202 -0.501349 1.25974
lowerneck -1.31673 -0.556645 -5.7018
upperneck 7.10493 -1.42462 9.09299
head 2.678 -0.723731 4.03181
rclavicle -1.09332e-014 -3.85642e-014
rhumerus -22.0586 -11.3062 -85.6273
rradius 21.0828
rwrist 11.1952
rhand -12.4167 -55.8712
rfingers 7.12502
rthumb 13.6554 -85.4032
lclavicle -1.09332e-014 -3.85642e-014
lhumerus -15.7599 1.80137 83.3575
lradius 14.1182
lwrist -11.1118
lhand -27.1356 -13.4312
lfingers 7.12502
lthumb -0.551017 16.5478
rfemur -50.2417 6.25225 12.9976
rtibia 29.7053
rfoot -20.7671 -14.6954
rtoes -27.6288
lfemur -50.8401 -7.60279 -12.8337
ltibia 27.3742
lfoot -8.27706 8.39063
ltoes -33.7939
474
root 9.99171 16.4968 0.901243 -141.597 -0.909494 179.163
lowerback -6.44768 -0.856668 -3.48165
upperback 0.551793 -0.872706 -0.619676
thorax 4.23307 -0.517293 1.22481
lowerneck -1.17239 -0.597831 -5.69868
upperneck 6.75097 -1.44449 9.04542
head 2.5323 -0.735252 4.00693
rclavicle -3.18055e-015 2.38542e-015
rhumerus -22.5871 -12.1108 -85.3388
rradius 21.0302
rwrist 11.8936
rhand -12.2668 -55.4623
rfingers 7.12502
rthumb 13.7999 -84.9846
lclavicle -3.18055e-015 2.38542e-015
lhumerus -16.3116 2.24823 83.2465
lradius 14.1673
lwrist -11.3458
lhand -26.9477 -13.1144
lfingers 7.12502
lthumb -0.369536 16.865
rfemur -48.862 6.25987 12.9822
rtibia 28.254
rfoot -20.5605 -14.6148
rtoes -28.5323
lfemur -49.3196 -7.93424 -12.8949
ltibia 25.6451
lfoot -8.00633 8.73873
ltoes -33.4888
475
root 9.99007 16.532 0.857333 -142 -0.823783 179.069
lowerback -6.87965 -0.91562 -3.51237
upperback 0.42856 -0.936732 -0.649585
thorax 4.3514 -0.551822 1.19941
lowerneck -1.07221 -0.952033 -5.73316
upperneck 6.44196 -1.39299 8.98392
head 2.4116 -0.513829 3.996
rclavicle -1.43125e-014 -7.55382e-015
rhumerus -23.0417 -12.5279 -85.0965
rradius 20.8999
rwrist 12.2544
rhand -12.2744 -55.1742
rfingers 7.12502
rthumb 13.7925 -84.697
lclavicle -1.43125e-014 -7.55382e-015
lhumerus -16.772 2.525 83.1885
lradius 14.1533
lwrist -11.1764
lhand -26.7158 -13.0033
lfingers 7.12502
lthumb -0.145553 16.9764
rfemur -47.5138 6.25525 12.9669
rtibia 26.9141
rfoot -20.4078 -14.6843
rtoes -29.731
lfemur -47.8418 -8.27222 -12.9758
ltibia 23.9601
lfoot -7.67744 9.08698
ltoes -33.2246
476
root 9.98764 16.561 0.815391 -142.282 -0.697682 179.063
lowerback -7.54836 -0.962118 -3.53532
upperback 0.235992 -0.980134 -0.624026
thorax 4.53036 -0.577483 1.22594
lowerneck -0.716132 -0.93863 -5.80117
upperneck 6.10133 -1.3729 8.9423
head 2.22997 -0.520929 3.98735
rclavicle -5.1684e-015 -1.47101e-014
rhumerus -23.65 -12.5565 -84.8356
rradius 20.922
rwrist 12.1503
rhand -12.2987 -55.3637
rfingers 7.12502
rthumb 13.7691 -84.8881
lclavicle -5.1684e-015 -1.47101e-014
lhumerus -17.2639 2.97375 83.1458
lradius 14.0658
lwrist -11.0023
lhand -26.5373 -12.9306
lfingers 7.12502
lthumb 0.0267617 17.0491
rfemur -46.3991 6.43571 12.9003
rtibia 25.6958
rfoot -20.2509 -14.7023
rtoes -29.5439
lfemur -46.5806 -8.38175 -13.0602
ltibia 22.4679
lfoot -7.28102 9.3421
ltoes -33.2455
